EMG
version=1
nRows=20
nColumns=17
inDegrees=no
endheader
time	_right_gast_med	_right_glut_max	_left_gast_med	_left_glut_max	_right_glut_med	_right_bic_fem	_right_rect_fem	_right_vast_lat	_right_vast_med	_right_tens_fasc_lat	_left_glut_med	_left_bic_fem	_left_rect_fem	_left_vast_lat	_left_vast_med	_left_tens_fasc_lat
      1.10000000	     -0.02976492	     -0.10808186	      0.01169178	     -0.03957855	      0.00334728	      0.01890444	      0.02122891	      0.03197116	      0.00506772	      0.01375172	     -0.03980526	     -0.00887715	      0.00103613	     -0.00895900	     -0.04158576	      0.04423061
      1.11000000	     -0.35033387	      0.27367181	     -0.01118055	     -0.07612319	      0.00297264	      0.01056007	      0.01464487	      0.02972548	      0.11627278	      0.00262509	     -0.02501934	     -0.00930671	      0.00985686	      0.00880609	      0.02650640	      0.04228549
      1.12000000	     -0.17611755	      0.36810526	     -0.01248614	     -0.08209567	      0.00046985	      0.01676794	      0.00255596	      0.03003978	      0.10214703	     -0.00401076	     -0.00369489	     -0.01570744	      0.01336346	      0.01173083	      0.02740956	      0.05829324
      1.13000000	     -0.02175941	      0.35356483	     -0.00572469	     -0.05423413	     -0.00150301	      0.02006408	     -0.00237588	      0.02894534	      0.06067937	      0.00155453	      0.00588128	     -0.00809597	      0.01097979	      0.00677897	     -0.03903999	      0.02891840
      1.14000000	      0.00379970	      0.35260278	      0.01782903	     -0.02388533	      0.00031823	      0.01950664	     -0.00056807	      0.02580266	      0.05123167	      0.00763138	      0.00775161	      0.01090445	      0.00454485	      0.00048978	     -0.08503248	     -0.03532369
      1.15000000	      0.01437005	      0.20047653	      0.02050587	     -0.01071202	      0.00850688	      0.01976395	      0.00560798	      0.01516650	      0.04739645	      0.00852123	      0.00990502	      0.02433464	      0.00296891	     -0.00043221	     -0.04649148	     -0.08265986
      1.16000000	      0.02008591	     -0.07070965	     -0.00140597	      0.00185738	      0.01860599	      0.01565161	      0.00902227	      0.00217869	      0.04195051	      0.00407633	      0.01766276	      0.02108391	      0.00823805	     -0.00015760	      0.01688381	     -0.09366781
      1.17000000	      0.01255429	     -0.34085938	      0.04126180	      0.01840217	      0.01809714	      0.01011015	      0.00150431	     -0.00129881	      0.03639044	     -0.00440813	      0.02549822	      0.00897420	      0.01558633	      0.00279028	      0.03175033	     -0.07786383
      1.18000000	      0.00180916	     -0.33509353	      0.03725164	     -0.00080028	      0.01124888	     -0.00053263	     -0.00426618	     -0.00364209	      0.02799934	     -0.00988886	      0.02894664	      0.00165429	      0.02138778	     -0.00150796	      0.02464678	     -0.03749412
      1.19000000	     -0.00529959	     -0.14711931	     -0.04363854	      0.03216593	      0.00694252	     -0.01270795	     -0.00199342	     -0.00983137	      0.01751636	     -0.01165045	      0.02636804	     -0.00523292	      0.01571251	     -0.01216422	      0.02604568	      0.01079386
      1.20000000	     -0.00195269	     -0.02338628	     -0.01162164	      0.26983199	      0.00924755	     -0.02114738	      0.00168169	     -0.01407237	      0.00751223	     -0.00476220	      0.02145750	     -0.00046112	      0.00665021	     -0.01109280	      0.02528157	      0.04799768
      1.21000000	      0.01001157	      0.02393722	      0.00728802	     -0.17952254	      0.01084793	      0.00376980	      0.00179817	     -0.01087735	      0.00347011	      0.00896818	      0.01713608	      0.00677949	      0.00234302	      0.00292602	      0.02047438	      0.05701062
      1.22000000	      0.01621145	      0.02965440	      0.02052009	     -1.11127102	      0.00917384	      0.02368573	      0.00327399	      0.00007740	      0.00696027	      0.01970311	      0.01546449	      0.00926381	      0.00183651	      0.01750492	     -0.00763935	      0.03469498
      1.23000000	      0.01599082	      0.02756686	      0.04943717	     -0.49467418	      0.00905612	      0.00033380	      0.00056730	      0.00242137	      0.01121778	      0.02378257	      0.01345998	      0.01061795	      0.00502325	      0.02669366	     -0.08418611	      0.00568493
      1.24000000	      0.01560638	      0.01876615	     -0.02528702	      0.24904491	      0.01010819	     -0.00665218	     -0.00467960	     -0.00152787	      0.00899795	      0.01832600	      0.00999614	      0.01404937	      0.01426257	      0.02913156	     -0.11092944	     -0.00519612
      1.25000000	      0.01562244	      0.01210304	     -0.03920738	      0.41086754	      0.01106633	      0.01686936	      0.00163447	      0.01031545	      0.00614435	      0.00727611	      0.00942114	      0.01973912	      0.01853381	      0.01286663	     -0.00469148	      0.00810035
      1.26000000	      0.01512338	      0.01189856	      0.04446909	      0.36686519	      0.01285084	      0.02808687	      0.01023108	      0.01959294	      0.00353791	      0.00431743	      0.01066249	      0.02631439	      0.00668465	     -0.01030801	      0.11584476	      0.01671453
      1.27000000	      0.01681738	      0.00941825	      0.05505425	      0.31055576	      0.01095105	      0.02107636	      0.01991229	      0.01639929	     -0.00615848	      0.01109695	     -0.00116878	      0.03160897	     -0.00248474	      0.00033070	      0.13503996	      0.00636643
      1.28000000	      0.01317095	      0.00142224	     -0.01325241	      0.26777148	      0.00835172	      0.02884810	      0.02574857	      0.01147525	     -0.00278242	      0.01004630	     -0.01025483	      0.02858946	      0.00556221	      0.00985349	      0.07619579	      0.01262700
      1.29000000	     -0.00131308	     -0.00391584	     -0.05917366	      0.23904420	      0.00682151	      0.02240878	      0.01254933	      0.02346008	      0.01036834	      0.01418468	     -0.00391283	      0.02145193	      0.01417363	      0.00703691	      0.01402300	      0.03215991
